<svg width="103" height="32" viewBox="0 0 103 32" fill="none" xmlns="http://www.w3.org/2000/svg">
<g clip-path="url(#clip0)">
<path d="M26.2579 31.3434H28.3591V10.9611H26.2579C25.7945 10.9611 25.35 11.1452 25.0223 11.4729C24.6946 11.8006 24.5105 12.245 24.5105 12.7085V29.596C24.5105 30.0594 24.6946 30.5039 25.0223 30.8316C25.35 31.1593 25.7945 31.3434 26.2579 31.3434Z" fill="url(#paint0_linear)"/>
<path d="M26.6497 1.73059C26.1118 1.73059 25.586 1.89009 25.1387 2.18893C24.6915 2.48776 24.3429 2.91251 24.1371 3.40946C23.9312 3.9064 23.8774 4.45323 23.9823 4.98078C24.0872 5.50834 24.3463 5.99293 24.7266 6.37327C25.107 6.75362 25.5915 7.01263 26.1191 7.11757C26.6467 7.22251 27.1935 7.16865 27.6904 6.96281C28.1874 6.75697 28.6121 6.40839 28.911 5.96115C29.2098 5.51391 29.3693 4.9881 29.3693 4.45021C29.3687 3.72909 29.082 3.03767 28.5721 2.52777C28.0622 2.01786 27.3708 1.73115 26.6497 1.73059Z" fill="url(#paint1_linear)"/>
<path d="M50.2706 21.1047C50.2706 25.2138 47.2586 28.4311 43.4122 28.4311C39.6357 28.4311 36.789 25.3218 36.789 21.2C36.789 17.0782 39.6547 13.9667 43.4588 13.9667C47.3412 13.9667 50.2706 17.0358 50.2706 21.1047ZM50.2706 13.2402C48.8705 11.783 46.3987 10.3978 43.1305 10.3978C37.2677 10.3978 32.8451 15.0215 32.8451 21.1513C32.8451 27.3361 37.2677 32.0001 43.1305 32.0001C44.4524 32.0178 45.7646 31.772 46.9905 31.277C48.2164 30.7821 49.3315 30.0479 50.2706 29.1174V29.5897C50.2706 30.0532 50.4547 30.4976 50.7824 30.8253C51.1101 31.153 51.5545 31.3371 52.018 31.3371H54.1191V-0.010498H52.018C51.5545 -0.010498 51.1101 0.173605 50.7824 0.50131C50.4547 0.829014 50.2706 1.27348 50.2706 1.73692V13.2402Z" fill="url(#paint2_linear)"/>
<path d="M98.3023 21.1045C98.3023 25.2136 95.2882 28.431 91.4439 28.431C87.6674 28.431 84.8186 25.3216 84.8186 21.1999C84.8186 17.0781 87.6865 13.9666 91.4905 13.9666C95.373 13.9666 98.3023 17.0357 98.3023 21.1045ZM98.3023 12.6492V13.2316C96.9022 11.7744 94.4304 10.3892 91.1622 10.3892C85.2994 10.3892 80.8768 15.0129 80.8768 21.1427C80.8768 27.3275 85.2994 31.9915 91.1622 31.9915C92.4836 32.0103 93.7954 31.7658 95.0213 31.2723C96.2471 30.7789 97.3625 30.0463 98.3023 29.1172V29.5896C98.3023 30.053 98.4864 30.4975 98.8141 30.8252C99.1418 31.1529 99.5863 31.337 100.05 31.337H102.151V10.9017H100.05C99.5863 10.9017 99.1418 11.0858 98.8141 11.4135C98.4864 11.7412 98.3023 12.1857 98.3023 12.6492Z" fill="url(#paint3_linear)"/>
<path d="M72.9977 22.0387C72.9977 27.3657 69.9879 28.1812 68.2023 28.1939L67.7787 28.1727C64.9956 27.9228 63.4621 25.7475 63.4621 22.043V10.9611H61.3609C60.8975 10.9611 60.453 11.1452 60.1253 11.473C59.7976 11.8007 59.6135 12.2451 59.6135 12.7086V22.3225C59.6135 28.465 62.5598 32.0001 67.6961 32.0001H68.7552C73.8936 32.0001 76.8399 28.4713 76.8399 22.3225V10.9569H74.7451C74.2817 10.9569 73.8372 11.141 73.5095 11.4687C73.1818 11.7964 72.9977 12.2409 72.9977 12.7043V22.0387Z" fill="url(#paint4_linear)"/>
<path d="M19.8993 10.9611H16.7222C16.3797 10.9609 16.0447 11.0611 15.7586 11.2494C15.4725 11.4376 15.2479 11.7055 15.1125 12.0201L9.60545 25.004L3.64728 10.9611H1.2242C1.01941 10.961 0.817886 11.0123 0.63813 11.1104C0.458373 11.2085 0.30615 11.3502 0.195444 11.5225C0.084737 11.6948 0.0190965 11.8921 0.00455163 12.0964C-0.00999325 12.3007 0.0270238 12.5053 0.112203 12.6915L8.16092 30.3076C8.29988 30.6122 8.52354 30.8705 8.80521 31.0515C9.08687 31.2325 9.41466 31.3287 9.74948 31.3286H10.6941L19.8993 10.9611Z" fill="url(#paint5_linear)"/>
</g>
<defs>
<linearGradient id="paint0_linear" x1="4.2625e-05" y1="16" x2="102.151" y2="16" gradientUnits="userSpaceOnUse">
<stop stop-color="#E23232"/>
<stop offset="0.28" stop-color="#FF8E6E"/>
<stop offset="0.53" stop-color="#DEA700"/>
<stop offset="0.75" stop-color="#6FA394"/>
<stop offset="1" stop-color="#005F93"/>
</linearGradient>
<linearGradient id="paint1_linear" x1="-7.77725e-05" y1="16.0001" x2="102.151" y2="16.0001" gradientUnits="userSpaceOnUse">
<stop stop-color="#E23232"/>
<stop offset="0.28" stop-color="#FF8E6E"/>
<stop offset="0.53" stop-color="#DEA700"/>
<stop offset="0.75" stop-color="#6FA394"/>
<stop offset="1" stop-color="#005F93"/>
</linearGradient>
<linearGradient id="paint2_linear" x1="-1.0343e-06" y1="16.0001" x2="102.151" y2="16.0001" gradientUnits="userSpaceOnUse">
<stop stop-color="#E23232"/>
<stop offset="0.28" stop-color="#FF8E6E"/>
<stop offset="0.53" stop-color="#DEA700"/>
<stop offset="0.75" stop-color="#6FA394"/>
<stop offset="1" stop-color="#005F93"/>
</linearGradient>
<linearGradient id="paint3_linear" x1="4.0116e-05" y1="16" x2="102.151" y2="16" gradientUnits="userSpaceOnUse">
<stop stop-color="#E23232"/>
<stop offset="0.28" stop-color="#FF8E6E"/>
<stop offset="0.53" stop-color="#DEA700"/>
<stop offset="0.75" stop-color="#6FA394"/>
<stop offset="1" stop-color="#005F93"/>
</linearGradient>
<linearGradient id="paint4_linear" x1="7.99414e-05" y1="16.0001" x2="102.151" y2="16.0001" gradientUnits="userSpaceOnUse">
<stop stop-color="#E23232"/>
<stop offset="0.28" stop-color="#FF8E6E"/>
<stop offset="0.53" stop-color="#DEA700"/>
<stop offset="0.75" stop-color="#6FA394"/>
<stop offset="1" stop-color="#005F93"/>
</linearGradient>
<linearGradient id="paint5_linear" x1="-5.56308e-05" y1="16" x2="102.151" y2="16" gradientUnits="userSpaceOnUse">
<stop stop-color="#E23232"/>
<stop offset="0.28" stop-color="#FF8E6E"/>
<stop offset="0.53" stop-color="#DEA700"/>
<stop offset="0.75" stop-color="#6FA394"/>
<stop offset="1" stop-color="#005F93"/>
</linearGradient>
<clipPath id="clip0">
<rect width="102.151" height="32" fill="white"/>
</clipPath>
</defs>
</svg>
